<svg xmlns="http://www.w3.org/2000/svg" viewBox="0 0 32 32" fill="currentColor"><path d="M27 3h-3a3 3 0 0 0-2.811 1.984 59 59 0 0 1-8.923-.784l-1.114-.185a7 7 0 0 0-8.068 5.832L1.9 17.542A3 3 0 0 0 4.859 21h3.7l-.933 2.486a4.22 4.22 0 0 0 .109 3.214 3.87 3.87 0 0 0 2.178 2.042 4.1 4.1 0 0 0 1.434.258 3.97 3.97 0 0 0 3.383-1.884l2-3.2a6.18 6.18 0 0 1 4.47-2.865A3 3 0 0 0 24 23h3a3 3 0 0 0 3-3V6a3 3 0 0 0-3-3M15.032 22.862l-2 3.2a2.01 2.01 0 0 1-2.428.809 1.88 1.88 0 0 1-1.052-1 2.2 2.2 0 0 1-.052-1.683l1.44-3.837A1 1 0 0 0 10 19H4.859a1 1 0 0 1-.988-1.153l1.19-7.694a5 5 0 0 1 5.763-4.169l1.114.186A61 61 0 0 0 21 6.98v12.083a8.16 8.16 0 0 0-5.968 3.799M28 20a1 1 0 0 1-1 1h-3a1 1 0 0 1-1-1V6a1 1 0 0 1 1-1h3a1 1 0 0 1 1 1Z" data-name="Layer 2"/></svg>