<svg xmlns="http://www.w3.org/2000/svg" data-name="Layer 1" viewBox="0 0 32 32" fill="currentColor"><path d="m15.13 23.78-.51.51c-.19.19-.49.19-.67 0l-.86-.86a.465.465 0 0 1 0-.67l.53-.53s.13-.05.18 0l2.2-2.2 1.36 1.36-2.2 2.2s.04.14-.03.2ZM28.9 15.68l-4.01 4.01c-.98.98-2.47 1.16-3.63.53-1.7-.62-2.58.26-2.58.26l-.23.23c-.13.13-.35.13-.48 0l-1.29-1.29a.344.344 0 0 1 0-.48l.23-.23s.88-.88.26-2.58c-.63-1.16-.46-2.65.53-3.63l4.01-4.01c1.2-1.2 3.14-1.2 4.34 0l2.87 2.87c1.2 1.2 1.2 3.14 0 4.34Z"/><path d="m16.87 23.78.51.51c.19.19.49.19.67 0l.86-.86c.19-.19.19-.49 0-.67l-.53-.53s-.13-.05-.18 0l-2.2-2.2-1.36 1.36 2.2 2.2s-.04.14.03.2ZM3.1 15.68l4.01 4.01c.98.98 2.47 1.16 3.63.53 1.7-.62 2.58.26 2.58.26l.23.23c.13.13.35.13.48 0l1.29-1.29c.13-.13.13-.35 0-.48l-.23-.23s-.88-.88-.26-2.58c.63-1.16.46-2.65-.53-3.63l-4.01-4.01c-1.2-1.2-3.14-1.2-4.34 0l-2.87 2.87c-1.2 1.2-1.2 3.14 0 4.34Z"/></svg>