<svg xmlns="http://www.w3.org/2000/svg" data-name="Layer 1" viewBox="0 0 32 32" fill="currentColor"><path d="m5.99 28.46-.81.81c-.3.3-.78.3-1.08 0L2.73 27.9a.76.76 0 0 1 0-1.08l.85-.85c.08-.08.2-.08.28 0l3.52-3.52 2.17 2.17-3.52 3.52s.06.22-.04.32M28.05 15.49l-6.42 6.42a4.9 4.9 0 0 1-5.82.84c-2.73-.99-4.14.42-4.14.42l-.37.37a.55.55 0 0 1-.77 0l-2.07-2.07a.55.55 0 0 1 0-.77l.37-.37s1.41-1.42.42-4.14a4.9 4.9 0 0 1 .84-5.82l6.42-6.42a4.913 4.913 0 0 1 6.95 0l4.6 4.6a4.913 4.913 0 0 1 0 6.95Z"/></svg>