<svg xmlns="http://www.w3.org/2000/svg" viewBox="0 0 100 100" fill="currentColor"><path d="M83 970.362c-3.29 0-6 2.71-6 6 0 1.329.444 2.563 1.188 3.563L66.53 996.58a5.9 5.9 0 0 0-1.531-.219c-2.58 0-4.786 1.693-5.625 4h-18.75c-.839-2.307-3.044-4-5.625-4-3.29 0-6 2.71-6 6 0 1.329.444 2.563 1.188 3.563L18.53 1022.58a5.9 5.9 0 0 0-1.531-.219c-3.29 0-6 2.71-6 6s2.71 6 6 6 6-2.71 6-6a5.92 5.92 0 0 0-1.187-3.562l11.625-16.625c.499.136 1.022.187 1.562.187 2.594 0 4.828-1.674 5.656-4h18.688c.828 2.326 3.062 4 5.656 4 3.29 0 6-2.71 6-6a5.92 5.92 0 0 0-1.187-3.562l11.624-16.625c.5.136 1.023.187 1.563.187 3.29 0 6-2.71 6-6s-2.71-6-6-6m0 4c1.128 0 2 .872 2 2s-.872 2-2 2-2-.872-2-2 .872-2 2-2m-48 26c1.128 0 2 .872 2 2s-.872 2-2 2-2-.872-2-2 .872-2 2-2m30 0c1.128 0 2 .872 2 2s-.872 2-2 2-2-.872-2-2 .872-2 2-2m-48 26c1.128 0 2 .872 2 2s-.872 2-2 2-2-.872-2-2 .872-2 2-2" overflow="visible" style="text-indent:0;text-transform:none;direction:ltr;block-progression:tb;baseline-shift:baseline;color:#000" transform="translate(0 -952.362)"/></svg>