<svg xmlns="http://www.w3.org/2000/svg" viewBox="0 0 32 32" fill="currentColor"><path d="M29.417 12.047A3 3 0 0 0 27.141 11h-3.7l.933-2.486a4.22 4.22 0 0 0-.109-3.214 3.87 3.87 0 0 0-2.178-2.042 3.994 3.994 0 0 0-4.817 1.624l-2 3.2a6.18 6.18 0 0 1-4.47 2.867A3 3 0 0 0 8 9H5a3 3 0 0 0-3 3v14a3 3 0 0 0 3 3h3a3 3 0 0 0 2.811-1.984 59 59 0 0 1 8.923.787l1.114.185a7 7 0 0 0 1.167.1 7 7 0 0 0 6.9-5.932l1.189-7.695a3 3 0 0 0-.687-2.414M9 26a1 1 0 0 1-1 1H5a1 1 0 0 1-1-1V12a1 1 0 0 1 1-1h3a1 1 0 0 1 1 1Zm17.939-4.153a5 5 0 0 1-5.763 4.169l-1.113-.186A61 61 0 0 0 11 25.02V12.937a8.16 8.16 0 0 0 5.968-3.8l2-3.2a2.01 2.01 0 0 1 2.428-.809 1.88 1.88 0 0 1 1.052 1 2.2 2.2 0 0 1 .052 1.684l-1.44 3.837A1 1 0 0 0 22 13h5.141a1 1 0 0 1 .988 1.153Z" data-name="Layer 2"/></svg>